<svg xmlns="http://www.w3.org/2000/svg" viewBox="0 0 512 512">
  <defs>
    <linearGradient id="portal-icon-lg-gradient" x1="5%" y1="0%" x2="95%" y2="100%">
      <stop offset="0%" stop-color="#312e81" />
      <stop offset="45%" stop-color="#6366f1" />
      <stop offset="100%" stop-color="#c026d3" />
    </linearGradient>
    <filter id="portal-icon-lg-shadow" x="-12%" y="-12%" width="124%" height="124%">
      <feDropShadow dx="0" dy="24" stdDeviation="32" flood-color="#0f172a" flood-opacity="0.25" />
    </filter>
  </defs>
  <rect x="48" y="48" width="416" height="416" rx="96" fill="url(#portal-icon-lg-gradient)" filter="url(#portal-icon-lg-shadow)" />
  <path fill="#fff" d="M256 120c-35.3 0-64 28.7-64 64v44.8c0 13.3-10.7 24-24 24h-28.8C111.7 252.8 96 268.5 96 288v120c0 24.9 20.1 45 45 45h230c24.9 0 45-20.1 45-45V288c0-19.5-15.7-35.2-35.2-35.2H352c-13.3 0-24-10.7-24-24V184c0-35.3-28.7-64-64-64Zm0 56c4.4 0 8 3.6 8 8v47c0 20.7 16.9 37.6 37.6 37.6h19.8c4.4 0 8 3.6 8 8v103.4c0 11-9 20-20 20H141c-11 0-20-9-20-20V266.6c0-4.4 3.6-8 8-8h19.8c20.7 0 37.6-16.9 37.6-37.6V184c0-4.4 3.6-8 8-8Z"/>
</svg>
